<svg t="1744616238063" class="icon" viewBox="0 0 1024 1024" version="1.1" xmlns="http://www.w3.org/2000/svg" p-id="7397" width="256" height="256"><path d="M963 65c0-13.8-11.2-25-25-25-4.5 0-8.8 1.2-12.4 3.3v-0.1L71.4 546.3v0.1A25 25 0 0 0 59 568c0 13.1 10.1 23.9 23 24.9v0.1h371v353.4l-0.2 0.4 0.2 0.1V963h0.8c2.7 10.4 12.1 18 23.2 18 7.8 0 14.8-3.8 19.2-9.6l0.2 0.1 5-8.5h0.5v-0.9L950 200.3l-0.2-0.1c2-3.6 3.1-7.7 3.1-12.1 0-13.8-11.2-25-25-25-9.8 0-18.3 5.7-22.4 13.9L502 863.1V543H175.6l774-455.8C957.6 83 963 74.6 963 65z" fill="#B5B5B5" p-id="7398"></path></svg>