<svg xmlns="http://www.w3.org/2000/svg" version="1.1" viewBox="0.00 0.00 1000.00 420.00" width="1000.00" height="420.00">
<g stroke-width="2.00" fill="none" stroke-linecap="butt">
<path stroke="#82dfd2" d="&#xA;  M 492.00 0.00&#xA;  C 468.27 0.98 444.09 5.73 422.31 15.49&#xA;  Q 399.33 25.79 379.41 41.18&#xA;  Q 377.57 42.60 376.01 44.24"/>
<path stroke="#e5ece8" d="&#xA;  M 376.01 44.24&#xA;  L 375.54 46.75&#xA;  A 1.12 1.04 -19.7 0 1 375.28 47.25&#xA;  Q 357.93 65.90 352.65 71.40&#xA;  Q 347.75 76.49 345.67 79.16&#xA;  Q 325.87 104.45 313.99 133.48&#xA;  Q 310.27 142.57 308.04 150.58&#xA;  Q 305.24 160.66 304.15 168.26&#xA;  Q 302.49 179.74 302.32 200.50&#xA;  Q 302.30 202.92 303.09 205.79&#xA;  A 0.30 0.30 0.0 0 0 303.68 205.74&#xA;  C 304.46 196.13 304.72 188.75 306.72 180.19&#xA;  Q 310.36 164.59 314.65 151.20&#xA;  C 316.32 146.00 318.29 141.96 320.99 135.70&#xA;  Q 331.33 111.81 348.81 88.59&#xA;  C 352.98 83.04 357.66 78.72 361.58 74.07&#xA;  C 365.85 69.00 372.44 63.52 376.22 58.75&#xA;  Q 378.29 56.15 379.19 51.81&#xA;  A 0.98 0.94 79.3 0 1 379.56 51.24&#xA;  Q 380.24 50.77 381.36 50.90"/>
<path stroke="#82dfd2" d="&#xA;  M 381.36 50.90&#xA;  Q 387.38 56.58 393.20 62.56&#xA;  Q 393.93 63.31 395.74 64.23&#xA;  A 0.97 0.95 43.2 0 0 396.64 64.21&#xA;  C 401.49 61.43 405.74 57.78 410.86 54.42&#xA;  Q 437.28 37.07 466.40 31.50&#xA;  Q 498.62 25.34 528.61 31.46&#xA;  Q 557.78 37.42 584.77 55.44&#xA;  C 588.57 57.97 592.44 61.85 596.10 64.46&#xA;  A 2.81 2.80 46.4 0 0 599.25 64.54&#xA;  Q 601.27 63.24 603.49 60.99&#xA;  Q 611.16 53.22 618.40 45.54&#xA;  A 0.86 0.86 0.0 0 0 618.37 44.33&#xA;  Q 614.79 40.91 611.55 38.45&#xA;  Q 564.51 2.66 505.24 0.00"/>
<path stroke="#82dfd2" d="&#xA;  M 443.19 112.90&#xA;  Q 447.99 108.95 451.81 106.08&#xA;  C 463.14 97.58 476.99 92.69 491.32 91.95&#xA;  Q 503.39 91.34 511.52 92.73&#xA;  Q 533.64 96.50 550.45 112.81&#xA;  A 1.90 1.89 43.0 0 0 553.17 112.72&#xA;  L 571.28 92.73&#xA;  A 1.66 1.66 0.0 0 0 571.22 90.44&#xA;  Q 567.18 86.43 562.67 83.29&#xA;  C 539.00 66.83 510.91 60.11 482.41 63.82&#xA;  Q 450.75 67.93 424.76 88.53&#xA;  Q 423.17 89.79 421.48 92.04&#xA;  A 1.26 1.26 0.0 0 0 421.59 93.69&#xA;  L 440.68 112.78&#xA;  A 1.87 1.87 0.0 0 0 443.19 112.90"/>
<path stroke="#84dacc" d="&#xA;  M 647.93 125.27&#xA;  L 632.76 133.44"/>
<path stroke="#caeae4" d="&#xA;  M 632.76 133.44&#xA;  C 624.04 137.77 614.74 143.06 606.83 146.87&#xA;  Q 588.25 155.83 571.29 165.50&#xA;  C 569.92 166.28 568.04 166.98 566.54 167.80&#xA;  Q 556.06 173.54 525.20 190.04&#xA;  C 524.12 190.62 522.69 190.89 521.98 191.49&#xA;  A 0.80 0.79 14.7 0 0 522.77 192.84&#xA;  Q 532.41 189.37 537.69 186.91&#xA;  C 547.25 182.45 556.15 178.79 565.97 173.98&#xA;  Q 571.93 171.06 576.48 169.00&#xA;  Q 611.00 153.35 645.81 136.75&#xA;  C 647.15 136.11 649.23 135.44 650.76 135.14&#xA;  A 1.00 1.00 0.0 0 1 651.90 135.79&#xA;  C 658.60 154.40 664.23 173.64 665.33 193.65&#xA;  A 1.32 1.32 0.0 0 0 666.65 194.90&#xA;  L 690.52 194.90&#xA;  A 1.30 1.30 0.0 0 0 691.81 193.42&#xA;  C 690.85 186.76 690.60 179.54 689.30 172.33&#xA;  C 687.27 161.13 685.57 150.38 681.73 140.03&#xA;  Q 678.34 130.91 675.43 122.60"/>
<path stroke="#84dacc" d="&#xA;  M 675.43 122.60&#xA;  L 671.09 113.45"/>
<path stroke="#caeae4" d="&#xA;  M 671.09 113.45&#xA;  Q 658.43 87.37 639.36 66.64&#xA;  Q 638.12 65.28 637.17 64.70&#xA;  A 2.16 2.16 0.0 0 0 634.59 64.91&#xA;  Q 627.37 71.24 620.10 77.35&#xA;  Q 619.80 77.60 617.89 79.95&#xA;  A 1.69 1.68 45.5 0 0 617.88 82.05&#xA;  Q 624.63 90.58 631.18 98.83&#xA;  Q 636.78 105.89 647.93 125.27"/>
<path stroke="#4fc4b1" d="&#xA;  M 671.09 113.45&#xA;  L 647.93 125.27"/>
<path stroke="#4fc4b1" d="&#xA;  M 675.43 122.60&#xA;  L 651.63 134.27&#xA;  A 2.03 2.02 -47.6 0 1 650.02 134.35&#xA;  C 645.67 132.73 641.49 134.68 637.55 136.46&#xA;  C 635.00 137.61 632.83 137.44 630.65 136.14&#xA;  A 0.47 0.46 46.0 0 1 630.66 135.33&#xA;  Q 631.85 134.68 632.76 133.44"/>
<path stroke="#82dfd2" d="&#xA;  M 521.7664 144.9378&#xA;  A 24.80 24.39 -1.9 0 0 496.1713 121.3834&#xA;  A 24.80 24.39 -1.9 0 0 472.1936 146.5822&#xA;  A 24.80 24.39 -1.9 0 0 497.7887 170.1366&#xA;  A 24.80 24.39 -1.9 0 0 521.7664 144.9378"/>
<path stroke="#caeae4" d="&#xA;  M 692.05 201.10&#xA;  A 1.31 1.31 0.0 0 0 690.77 200.06&#xA;  L 666.87 200.06&#xA;  A 1.02 1.02 0.0 0 0 665.85 201.08&#xA;  L 665.85 213.15&#xA;  A 1.25 1.25 0.0 0 0 667.07 214.40&#xA;  Q 676.51 214.63 686.77 213.83&#xA;  Q 689.25 213.64 691.15 212.91&#xA;  A 1.74 1.74 0.0 0 0 692.25 211.58&#xA;  Q 693.18 206.35 692.05 201.10"/>
<path stroke="#84dacc" d="&#xA;  M 379.71 312.95&#xA;  Q 374.65 328.22 374.34 330.25&#xA;  Q 373.79 333.89 377.78 335.22&#xA;  Q 400.45 342.79 422.81 342.96&#xA;  Q 434.56 343.05 442.15 342.16&#xA;  C 461.87 339.83 484.66 328.17 490.61 307.63&#xA;  Q 492.17 302.22 491.84 293.39&#xA;  C 491.04 271.79 467.25 264.71 450.19 261.36&#xA;  C 439.64 259.30 431.65 257.97 423.30 254.50&#xA;  C 414.99 251.04 412.15 242.22 417.92 234.84&#xA;  C 424.40 226.55 435.19 224.65 445.19 223.94&#xA;  Q 470.61 222.13 495.72 229.30&#xA;  A 2.04 2.03 -75.9 0 0 498.27 227.77&#xA;  L 502.30 208.77&#xA;  A 1.59 1.58 -76.2 0 0 501.18 206.91&#xA;  Q 469.85 198.05 437.23 201.96&#xA;  C 412.19 204.96 388.79 222.05 390.36 249.75&#xA;  C 390.74 256.38 393.38 263.52 398.21 267.78&#xA;  Q 406.52 275.12 418.23 278.29&#xA;  Q 425.86 280.36 444.50 284.76&#xA;  C 453.87 286.97 469.74 291.65 466.30 304.49&#xA;  Q 465.36 308.02 461.93 311.07&#xA;  Q 457.84 314.72 455.37 315.67&#xA;  Q 443.08 320.45 428.98 320.35&#xA;  Q 407.66 320.19 387.13 313.90&#xA;  Q 382.42 312.46 380.75 312.28&#xA;  A 0.99 0.99 0.0 0 0 379.71 312.95"/>
<path stroke="#84dacc" d="&#xA;  M 151.99 223.56&#xA;  A 1.27 1.27 0.0 0 0 153.23 225.09&#xA;  L 180.45 225.09&#xA;  A 1.27 1.27 0.0 0 0 181.69 224.08&#xA;  L 186.24 202.65&#xA;  A 1.27 1.27 0.0 0 0 185.00 201.12&#xA;  L 157.78 201.12&#xA;  A 1.27 1.27 0.0 0 0 156.54 202.13&#xA;  L 151.99 223.56"/>
<path stroke="#84dacc" d="&#xA;  M 0.80 340.02&#xA;  A 0.80 0.80 0.0 0 0 1.60 340.85&#xA;  L 29.01 340.85&#xA;  A 1.87 1.86 -83.8 0 0 30.83 339.38&#xA;  L 40.00 296.98&#xA;  A 1.26 1.26 0.0 0 1 41.27 295.99&#xA;  C 48.95 296.19 69.61 297.00 83.75 296.06&#xA;  Q 102.25 294.84 116.36 283.36&#xA;  C 125.40 276.01 131.72 263.71 134.27 252.72&#xA;  C 137.40 239.28 134.66 222.18 122.71 213.75&#xA;  Q 112.07 206.25 98.00 206.13&#xA;  Q 92.40 206.08 36.50 205.44&#xA;  Q 33.88 205.41 29.67 205.70&#xA;  A 0.74 0.74 0.0 0 0 29.00 206.28&#xA;  C 25.65 221.20 22.46 237.25 19.86 248.89&#xA;  Q 11.74 285.29 1.50 334.99&#xA;  Q 0.89 337.94 0.80 340.02"/>
<path stroke="#84dacc" d="&#xA;  M 995.53 258.11&#xA;  L 999.48 242.90&#xA;  A 1.96 1.95 -73.5 0 0 998.22 240.56&#xA;  Q 983.49 235.57 969.23 234.93&#xA;  C 952.75 234.20 938.52 235.93 925.64 245.65&#xA;  C 912.52 255.55 908.53 279.88 924.61 289.14&#xA;  Q 931.71 293.23 939.98 295.27&#xA;  Q 944.93 296.50 958.53 300.01&#xA;  Q 963.48 301.29 966.41 303.26&#xA;  C 972.70 307.46 971.81 315.98 965.21 319.27&#xA;  Q 958.00 322.86 949.22 322.90&#xA;  Q 931.79 322.96 915.01 317.27&#xA;  C 913.01 316.59 910.30 316.18 908.55 316.08&#xA;  A 1.18 1.17 11.3 0 0 907.36 316.87&#xA;  Q 904.58 324.79 904.42 333.79&#xA;  A 2.01 1.99 10.2 0 0 905.76 335.70&#xA;  Q 926.18 342.83 946.92 342.42&#xA;  Q 958.61 342.19 968.61 338.56&#xA;  C 981.70 333.82 992.93 320.37 992.36 305.82&#xA;  C 991.45 282.07 964.17 280.24 947.52 275.22&#xA;  C 942.26 273.64 935.55 270.57 938.04 263.87&#xA;  C 942.12 252.91 963.36 254.15 972.00 255.26&#xA;  Q 983.12 256.68 993.40 259.37&#xA;  A 1.75 1.74 -75.4 0 0 995.53 258.11"/>
<path stroke="#84dacc" d="&#xA;  M 734.54 246.65&#xA;  A 0.86 0.86 0.0 0 1 733.03 246.01&#xA;  L 733.65 239.03&#xA;  A 1.32 1.31 2.6 0 0 732.34 237.60&#xA;  L 713.85 237.60&#xA;  A 0.95 0.95 0.0 0 0 712.92 238.35&#xA;  Q 696.50 318.35 692.93 336.18&#xA;  Q 692.69 337.36 692.52 340.37&#xA;  A 0.56 0.56 0.0 0 0 693.08 340.96&#xA;  L 713.54 340.96&#xA;  A 1.02 1.02 0.0 0 0 714.50 340.28&#xA;  Q 715.60 337.18 716.33 333.82&#xA;  Q 721.05 312.13 725.29 290.27&#xA;  C 728.55 273.43 733.76 260.61 752.05 256.07&#xA;  Q 761.30 253.77 769.00 258.11&#xA;  C 777.81 263.08 773.75 280.30 771.97 288.24&#xA;  Q 765.82 315.67 761.36 339.96&#xA;  A 1.27 1.26 -84.7 0 0 762.60 341.46&#xA;  L 782.19 341.46&#xA;  A 1.73 1.73 0.0 0 0 783.88 340.10&#xA;  C 785.54 332.45 786.61 326.66 788.11 320.65&#xA;  C 789.91 313.40 790.95 306.82 792.61 300.33&#xA;  Q 795.71 288.19 797.88 273.79&#xA;  C 798.52 269.62 799.40 265.48 799.05 261.42&#xA;  Q 797.43 242.74 779.59 237.40&#xA;  C 764.47 232.88 748.47 236.65 735.63 245.47&#xA;  A 1.37 1.26 -84.3 0 0 735.36 245.71&#xA;  L 734.54 246.65"/>
<path stroke="#84dacc" d="&#xA;  M 669.64 313.21&#xA;  Q 665.91 315.18 661.53 317.49&#xA;  C 653.63 321.67 645.02 323.43 636.29 322.80&#xA;  C 622.34 321.79 613.76 312.58 614.14 298.52&#xA;  A 1.32 1.31 -89.1 0 1 615.45 297.24&#xA;  L 689.74 297.24&#xA;  A 1.40 1.39 8.8 0 0 691.07 296.27&#xA;  Q 692.12 292.94 692.57 288.31&#xA;  Q 693.33 280.60 693.08 273.23&#xA;  C 692.61 259.66 686.08 245.63 673.25 239.95&#xA;  C 659.89 234.04 644.04 234.76 630.50 240.47&#xA;  Q 606.97 250.41 597.21 274.40&#xA;  Q 591.68 287.99 591.98 302.22&#xA;  C 592.42 322.90 604.64 337.70 624.98 341.53&#xA;  C 640.17 344.40 655.29 342.18 668.48 334.47&#xA;  C 672.17 332.31 676.36 330.09 678.61 327.44&#xA;  A 2.47 2.46 50.3 0 0 678.87 324.61&#xA;  L 672.81 314.13&#xA;  A 2.38 2.38 0.0 0 0 669.64 313.21"/>
<path stroke="#84dacc" d="&#xA;  M 825.77 297.13&#xA;  L 901.36 297.13&#xA;  A 1.40 1.39 6.5 0 0 902.72 296.05&#xA;  C 905.96 281.83 906.24 262.47 897.38 250.76&#xA;  Q 890.04 241.05 878.23 237.91&#xA;  Q 868.01 235.20 859.77 236.07&#xA;  Q 828.32 239.39 812.68 264.18&#xA;  Q 807.92 271.72 805.24 280.95&#xA;  C 802.25 291.21 800.52 303.48 802.99 313.38&#xA;  C 806.82 328.71 818.36 338.88 834.08 341.73&#xA;  C 854.06 345.35 872.83 339.95 889.19 328.64&#xA;  A 1.75 1.74 71.8 0 0 889.94 327.15&#xA;  C 889.80 322.88 886.03 317.55 883.68 313.68&#xA;  A 1.32 1.32 0.0 0 0 882.24 313.08&#xA;  Q 880.79 313.44 879.78 314.01&#xA;  Q 871.20 318.84 866.26 320.49&#xA;  C 857.60 323.37 846.96 324.17 838.62 321.30&#xA;  Q 824.03 316.27 824.90 297.97&#xA;  A 0.87 0.87 0.0 0 1 825.77 297.13"/>
<path stroke="#84dacc" d="&#xA;  M 583.27 266.72&#xA;  Q 590.12 258.44 595.33 249.91&#xA;  A 1.74 1.72 42.9 0 0 595.25 247.99&#xA;  Q 593.99 246.25 591.03 244.48&#xA;  C 584.26 240.43 577.27 237.97 569.32 236.94&#xA;  Q 534.85 232.47 513.05 258.92&#xA;  C 501.93 272.40 498.25 291.39 499.26 308.50&#xA;  C 500.90 336.36 529.86 347.49 553.67 342.42&#xA;  Q 569.10 339.13 580.38 329.67&#xA;  Q 582.98 327.49 581.43 324.67&#xA;  Q 578.48 319.32 573.85 313.71&#xA;  A 1.74 1.73 54.2 0 0 571.59 313.34&#xA;  C 565.42 317.25 557.72 321.85 549.99 322.77&#xA;  C 542.49 323.66 535.17 322.84 529.41 317.61&#xA;  Q 524.22 312.90 522.93 306.04&#xA;  C 521.81 300.05 522.14 296.24 523.04 289.53&#xA;  Q 523.58 285.57 524.70 282.46&#xA;  C 529.10 270.25 537.43 259.62 550.41 257.45&#xA;  C 559.19 255.98 567.96 257.19 575.76 261.76&#xA;  Q 577.08 262.53 582.42 266.81&#xA;  A 0.61 0.61 0.0 0 0 583.27 266.72"/>
<path stroke="#84dacc" d="&#xA;  M 260.34 270.08&#xA;  A 0.70 0.69 -61.2 0 0 261.23 269.82&#xA;  Q 262.17 268.30 271.53 253.55&#xA;  C 273.22 250.89 274.58 248.15 271.63 246.12&#xA;  C 262.49 239.85 251.02 237.69 239.96 237.49&#xA;  C 201.90 236.79 173.06 265.46 175.00 303.78&#xA;  Q 175.50 313.65 181.54 323.15&#xA;  C 188.42 333.97 200.05 339.88 212.76 341.32&#xA;  Q 237.21 344.09 256.90 330.61&#xA;  Q 258.80 329.31 261.78 326.73&#xA;  A 1.07 1.06 -32.5 0 0 262.06 325.49&#xA;  Q 260.77 322.60 254.77 309.90&#xA;  Q 253.68 307.58 250.97 309.19&#xA;  Q 248.46 310.68 242.61 313.56&#xA;  Q 234.06 317.77 223.97 317.20&#xA;  Q 216.11 316.75 211.12 312.84&#xA;  Q 205.32 308.29 204.23 301.29&#xA;  Q 202.49 290.09 207.61 279.69&#xA;  Q 213.88 266.96 227.80 263.31&#xA;  Q 239.82 260.15 250.84 264.76&#xA;  C 253.92 266.05 257.56 268.79 260.34 270.08"/>
<path stroke="#84dacc" d="&#xA;  M 362.10 317.35&#xA;  C 373.68 303.41 378.55 285.22 374.36 267.42&#xA;  C 371.25 254.20 359.97 243.22 347.15 239.89&#xA;  C 314.53 231.42 281.99 248.41 270.31 279.89&#xA;  Q 268.91 283.67 268.04 289.49&#xA;  Q 266.80 297.80 266.80 299.28&#xA;  Q 266.85 319.63 280.76 331.83&#xA;  C 298.88 347.72 328.24 344.54 346.81 332.02&#xA;  C 352.25 328.35 358.03 322.25 362.10 317.35"/>
<path stroke="#84dacc" d="&#xA;  M 155.42 340.85&#xA;  A 1.77 1.77 0.0 0 0 157.15 339.45&#xA;  L 178.19 240.36&#xA;  A 1.77 1.77 0.0 0 0 176.45 238.22&#xA;  L 150.40 238.22&#xA;  A 1.77 1.77 0.0 0 0 148.67 239.62&#xA;  L 127.63 338.71&#xA;  A 1.77 1.77 0.0 0 0 129.37 340.85&#xA;  L 155.42 340.85"/>
<path stroke="#84dacc" d="&#xA;  M 625.46 366.80&#xA;  A 0.19 0.19 0.0 0 0 625.37 366.52&#xA;  Q 615.19 362.46 603.96 356.09&#xA;  C 601.52 354.71 599.97 354.23 597.68 355.92&#xA;  C 593.29 359.14 586.82 364.13 581.17 367.70&#xA;  Q 553.80 384.99 521.60 391.64&#xA;  C 512.96 393.43 505.03 393.65 494.04 394.63&#xA;  A 0.60 0.59 88.0 0 0 493.49 395.23&#xA;  L 493.49 418.48&#xA;  A 1.17 1.17 0.0 0 0 494.63 419.65&#xA;  C 519.71 420.28 545.19 414.53 568.73 404.98&#xA;  Q 595.27 394.21 619.73 373.50&#xA;  Q 623.40 370.40 625.46 366.80"/>
<path stroke="#67ccbb" d="&#xA;  M 381.36 50.90&#xA;  L 376.01 44.24"/>
<path stroke="#84dacc" d="&#xA;  M 47.92 270.52&#xA;  Q 63.21 271.13 79.74 270.70&#xA;  C 90.78 270.41 101.55 265.42 104.28 253.81&#xA;  Q 107.68 239.41 95.42 233.84&#xA;  A 6.14 5.79 -26.1 0 0 94.06 233.42&#xA;  Q 85.56 231.90 82.25 231.85&#xA;  Q 76.05 231.77 55.76 231.93&#xA;  A 1.41 1.40 5.6 0 0 54.39 233.05&#xA;  L 46.75 269.02&#xA;  A 1.25 1.25 0.0 0 0 47.92 270.52"/>
<path stroke="#84dacc" d="&#xA;  M 671.32 278.22&#xA;  C 671.32 269.11 666.65 258.71 657.23 256.78&#xA;  Q 635.54 252.32 622.22 270.17&#xA;  Q 619.95 273.21 618.02 277.62&#xA;  A 0.92 0.91 11.9 0 0 618.86 278.90&#xA;  L 670.67 278.86&#xA;  A 0.65 0.65 0.0 0 0 671.32 278.22"/>
<path stroke="#84dacc" d="&#xA;  M 882.71 278.47&#xA;  C 882.72 269.27 878.01 258.76 868.50 256.80&#xA;  Q 846.59 252.28 833.12 270.30&#xA;  Q 830.83 273.37 828.87 277.82&#xA;  A 0.93 0.92 12.0 0 0 829.72 279.12&#xA;  L 882.05 279.12&#xA;  A 0.66 0.66 0.0 0 0 882.71 278.47"/>
<path stroke="#84dacc" d="&#xA;  M 302.38 274.77&#xA;  Q 296.74 281.85 295.25 291.45&#xA;  C 293.76 301.06 297.07 311.34 306.75 314.84&#xA;  C 318.78 319.20 331.32 314.59 339.19 304.71&#xA;  Q 344.83 297.64 346.32 288.04&#xA;  C 347.81 278.43 344.50 268.15 334.82 264.65&#xA;  C 322.79 260.29 310.26 264.90 302.38 274.77"/>
</g>
<path fill="#ffffff" d="&#xA;  M 492.00 0.00&#xA;  C 468.27 0.98 444.09 5.73 422.31 15.49&#xA;  Q 399.33 25.79 379.41 41.18&#xA;  Q 377.57 42.60 376.01 44.24&#xA;  L 375.54 46.75&#xA;  A 1.12 1.04 -19.7 0 1 375.28 47.25&#xA;  Q 357.93 65.90 352.65 71.40&#xA;  Q 347.75 76.49 345.67 79.16&#xA;  Q 325.87 104.45 313.99 133.48&#xA;  Q 310.27 142.57 308.04 150.58&#xA;  Q 305.24 160.66 304.15 168.26&#xA;  Q 302.49 179.74 302.32 200.50&#xA;  Q 302.30 202.92 303.09 205.79&#xA;  A 0.30 0.30 0.0 0 0 303.68 205.74&#xA;  C 304.46 196.13 304.72 188.75 306.72 180.19&#xA;  Q 310.36 164.59 314.65 151.20&#xA;  C 316.32 146.00 318.29 141.96 320.99 135.70&#xA;  Q 331.33 111.81 348.81 88.59&#xA;  C 352.98 83.04 357.66 78.72 361.58 74.07&#xA;  C 365.85 69.00 372.44 63.52 376.22 58.75&#xA;  Q 378.29 56.15 379.19 51.81&#xA;  A 0.98 0.94 79.3 0 1 379.56 51.24&#xA;  Q 380.24 50.77 381.36 50.90&#xA;  Q 387.38 56.58 393.20 62.56&#xA;  Q 393.93 63.31 395.74 64.23&#xA;  A 0.97 0.95 43.2 0 0 396.64 64.21&#xA;  C 401.49 61.43 405.74 57.78 410.86 54.42&#xA;  Q 437.28 37.07 466.40 31.50&#xA;  Q 498.62 25.34 528.61 31.46&#xA;  Q 557.78 37.42 584.77 55.44&#xA;  C 588.57 57.97 592.44 61.85 596.10 64.46&#xA;  A 2.81 2.80 46.4 0 0 599.25 64.54&#xA;  Q 601.27 63.24 603.49 60.99&#xA;  Q 611.16 53.22 618.40 45.54&#xA;  A 0.86 0.86 0.0 0 0 618.37 44.33&#xA;  Q 614.79 40.91 611.55 38.45&#xA;  Q 564.51 2.66 505.24 0.00&#xA;  L 1000.00 0.00&#xA;  L 1000.00 420.00&#xA;  L 0.00 420.00&#xA;  L 0.00 0.00&#xA;  L 492.00 0.00&#xA;  Z&#xA;  M 443.19 112.90&#xA;  Q 447.99 108.95 451.81 106.08&#xA;  C 463.14 97.58 476.99 92.69 491.32 91.95&#xA;  Q 503.39 91.34 511.52 92.73&#xA;  Q 533.64 96.50 550.45 112.81&#xA;  A 1.90 1.89 43.0 0 0 553.17 112.72&#xA;  L 571.28 92.73&#xA;  A 1.66 1.66 0.0 0 0 571.22 90.44&#xA;  Q 567.18 86.43 562.67 83.29&#xA;  C 539.00 66.83 510.91 60.11 482.41 63.82&#xA;  Q 450.75 67.93 424.76 88.53&#xA;  Q 423.17 89.79 421.48 92.04&#xA;  A 1.26 1.26 0.0 0 0 421.59 93.69&#xA;  L 440.68 112.78&#xA;  A 1.87 1.87 0.0 0 0 443.19 112.90&#xA;  Z&#xA;  M 647.93 125.27&#xA;  L 632.76 133.44&#xA;  C 624.04 137.77 614.74 143.06 606.83 146.87&#xA;  Q 588.25 155.83 571.29 165.50&#xA;  C 569.92 166.28 568.04 166.98 566.54 167.80&#xA;  Q 556.06 173.54 525.20 190.04&#xA;  C 524.12 190.62 522.69 190.89 521.98 191.49&#xA;  A 0.80 0.79 14.7 0 0 522.77 192.84&#xA;  Q 532.41 189.37 537.69 186.91&#xA;  C 547.25 182.45 556.15 178.79 565.97 173.98&#xA;  Q 571.93 171.06 576.48 169.00&#xA;  Q 611.00 153.35 645.81 136.75&#xA;  C 647.15 136.11 649.23 135.44 650.76 135.14&#xA;  A 1.00 1.00 0.0 0 1 651.90 135.79&#xA;  C 658.60 154.40 664.23 173.64 665.33 193.65&#xA;  A 1.32 1.32 0.0 0 0 666.65 194.90&#xA;  L 690.52 194.90&#xA;  A 1.30 1.30 0.0 0 0 691.81 193.42&#xA;  C 690.85 186.76 690.60 179.54 689.30 172.33&#xA;  C 687.27 161.13 685.57 150.38 681.73 140.03&#xA;  Q 678.34 130.91 675.43 122.60&#xA;  L 671.09 113.45&#xA;  Q 658.43 87.37 639.36 66.64&#xA;  Q 638.12 65.28 637.17 64.70&#xA;  A 2.16 2.16 0.0 0 0 634.59 64.91&#xA;  Q 627.37 71.24 620.10 77.35&#xA;  Q 619.80 77.60 617.89 79.95&#xA;  A 1.69 1.68 45.5 0 0 617.88 82.05&#xA;  Q 624.63 90.58 631.18 98.83&#xA;  Q 636.78 105.89 647.93 125.27&#xA;  Z&#xA;  M 521.7664 144.9378&#xA;  A 24.80 24.39 -1.9 0 0 496.1713 121.3834&#xA;  A 24.80 24.39 -1.9 0 0 472.1936 146.5822&#xA;  A 24.80 24.39 -1.9 0 0 497.7887 170.1366&#xA;  A 24.80 24.39 -1.9 0 0 521.7664 144.9378&#xA;  Z&#xA;  M 692.05 201.10&#xA;  A 1.31 1.31 0.0 0 0 690.77 200.06&#xA;  L 666.87 200.06&#xA;  A 1.02 1.02 0.0 0 0 665.85 201.08&#xA;  L 665.85 213.15&#xA;  A 1.25 1.25 0.0 0 0 667.07 214.40&#xA;  Q 676.51 214.63 686.77 213.83&#xA;  Q 689.25 213.64 691.15 212.91&#xA;  A 1.74 1.74 0.0 0 0 692.25 211.58&#xA;  Q 693.18 206.35 692.05 201.10&#xA;  Z&#xA;  M 379.71 312.95&#xA;  Q 374.65 328.22 374.34 330.25&#xA;  Q 373.79 333.89 377.78 335.22&#xA;  Q 400.45 342.79 422.81 342.96&#xA;  Q 434.56 343.05 442.15 342.16&#xA;  C 461.87 339.83 484.66 328.17 490.61 307.63&#xA;  Q 492.17 302.22 491.84 293.39&#xA;  C 491.04 271.79 467.25 264.71 450.19 261.36&#xA;  C 439.64 259.30 431.65 257.97 423.30 254.50&#xA;  C 414.99 251.04 412.15 242.22 417.92 234.84&#xA;  C 424.40 226.55 435.19 224.65 445.19 223.94&#xA;  Q 470.61 222.13 495.72 229.30&#xA;  A 2.04 2.03 -75.9 0 0 498.27 227.77&#xA;  L 502.30 208.77&#xA;  A 1.59 1.58 -76.2 0 0 501.18 206.91&#xA;  Q 469.85 198.05 437.23 201.96&#xA;  C 412.19 204.96 388.79 222.05 390.36 249.75&#xA;  C 390.74 256.38 393.38 263.52 398.21 267.78&#xA;  Q 406.52 275.12 418.23 278.29&#xA;  Q 425.86 280.36 444.50 284.76&#xA;  C 453.87 286.97 469.74 291.65 466.30 304.49&#xA;  Q 465.36 308.02 461.93 311.07&#xA;  Q 457.84 314.72 455.37 315.67&#xA;  Q 443.08 320.45 428.98 320.35&#xA;  Q 407.66 320.19 387.13 313.90&#xA;  Q 382.42 312.46 380.75 312.28&#xA;  A 0.99 0.99 0.0 0 0 379.71 312.95&#xA;  Z&#xA;  M 151.99 223.56&#xA;  A 1.27 1.27 0.0 0 0 153.23 225.09&#xA;  L 180.45 225.09&#xA;  A 1.27 1.27 0.0 0 0 181.69 224.08&#xA;  L 186.24 202.65&#xA;  A 1.27 1.27 0.0 0 0 185.00 201.12&#xA;  L 157.78 201.12&#xA;  A 1.27 1.27 0.0 0 0 156.54 202.13&#xA;  L 151.99 223.56&#xA;  Z&#xA;  M 0.80 340.02&#xA;  A 0.80 0.80 0.0 0 0 1.60 340.85&#xA;  L 29.01 340.85&#xA;  A 1.87 1.86 -83.8 0 0 30.83 339.38&#xA;  L 40.00 296.98&#xA;  A 1.26 1.26 0.0 0 1 41.27 295.99&#xA;  C 48.95 296.19 69.61 297.00 83.75 296.06&#xA;  Q 102.25 294.84 116.36 283.36&#xA;  C 125.40 276.01 131.72 263.71 134.27 252.72&#xA;  C 137.40 239.28 134.66 222.18 122.71 213.75&#xA;  Q 112.07 206.25 98.00 206.13&#xA;  Q 92.40 206.08 36.50 205.44&#xA;  Q 33.88 205.41 29.67 205.70&#xA;  A 0.74 0.74 0.0 0 0 29.00 206.28&#xA;  C 25.65 221.20 22.46 237.25 19.86 248.89&#xA;  Q 11.74 285.29 1.50 334.99&#xA;  Q 0.89 337.94 0.80 340.02&#xA;  Z&#xA;  M 995.53 258.11&#xA;  L 999.48 242.90&#xA;  A 1.96 1.95 -73.5 0 0 998.22 240.56&#xA;  Q 983.49 235.57 969.23 234.93&#xA;  C 952.75 234.20 938.52 235.93 925.64 245.65&#xA;  C 912.52 255.55 908.53 279.88 924.61 289.14&#xA;  Q 931.71 293.23 939.98 295.27&#xA;  Q 944.93 296.50 958.53 300.01&#xA;  Q 963.48 301.29 966.41 303.26&#xA;  C 972.70 307.46 971.81 315.98 965.21 319.27&#xA;  Q 958.00 322.86 949.22 322.90&#xA;  Q 931.79 322.96 915.01 317.27&#xA;  C 913.01 316.59 910.30 316.18 908.55 316.08&#xA;  A 1.18 1.17 11.3 0 0 907.36 316.87&#xA;  Q 904.58 324.79 904.42 333.79&#xA;  A 2.01 1.99 10.2 0 0 905.76 335.70&#xA;  Q 926.18 342.83 946.92 342.42&#xA;  Q 958.61 342.19 968.61 338.56&#xA;  C 981.70 333.82 992.93 320.37 992.36 305.82&#xA;  C 991.45 282.07 964.17 280.24 947.52 275.22&#xA;  C 942.26 273.64 935.55 270.57 938.04 263.87&#xA;  C 942.12 252.91 963.36 254.15 972.00 255.26&#xA;  Q 983.12 256.68 993.40 259.37&#xA;  A 1.75 1.74 -75.4 0 0 995.53 258.11&#xA;  Z&#xA;  M 734.54 246.65&#xA;  A 0.86 0.86 0.0 0 1 733.03 246.01&#xA;  L 733.65 239.03&#xA;  A 1.32 1.31 2.6 0 0 732.34 237.60&#xA;  L 713.85 237.60&#xA;  A 0.95 0.95 0.0 0 0 712.92 238.35&#xA;  Q 696.50 318.35 692.93 336.18&#xA;  Q 692.69 337.36 692.52 340.37&#xA;  A 0.56 0.56 0.0 0 0 693.08 340.96&#xA;  L 713.54 340.96&#xA;  A 1.02 1.02 0.0 0 0 714.50 340.28&#xA;  Q 715.60 337.18 716.33 333.82&#xA;  Q 721.05 312.13 725.29 290.27&#xA;  C 728.55 273.43 733.76 260.61 752.05 256.07&#xA;  Q 761.30 253.77 769.00 258.11&#xA;  C 777.81 263.08 773.75 280.30 771.97 288.24&#xA;  Q 765.82 315.67 761.36 339.96&#xA;  A 1.27 1.26 -84.7 0 0 762.60 341.46&#xA;  L 782.19 341.46&#xA;  A 1.73 1.73 0.0 0 0 783.88 340.10&#xA;  C 785.54 332.45 786.61 326.66 788.11 320.65&#xA;  C 789.91 313.40 790.95 306.82 792.61 300.33&#xA;  Q 795.71 288.19 797.88 273.79&#xA;  C 798.52 269.62 799.40 265.48 799.05 261.42&#xA;  Q 797.43 242.74 779.59 237.40&#xA;  C 764.47 232.88 748.47 236.65 735.63 245.47&#xA;  A 1.37 1.26 -84.3 0 0 735.36 245.71&#xA;  L 734.54 246.65&#xA;  Z&#xA;  M 669.64 313.21&#xA;  Q 665.91 315.18 661.53 317.49&#xA;  C 653.63 321.67 645.02 323.43 636.29 322.80&#xA;  C 622.34 321.79 613.76 312.58 614.14 298.52&#xA;  A 1.32 1.31 -89.1 0 1 615.45 297.24&#xA;  L 689.74 297.24&#xA;  A 1.40 1.39 8.8 0 0 691.07 296.27&#xA;  Q 692.12 292.94 692.57 288.31&#xA;  Q 693.33 280.60 693.08 273.23&#xA;  C 692.61 259.66 686.08 245.63 673.25 239.95&#xA;  C 659.89 234.04 644.04 234.76 630.50 240.47&#xA;  Q 606.97 250.41 597.21 274.40&#xA;  Q 591.68 287.99 591.98 302.22&#xA;  C 592.42 322.90 604.64 337.70 624.98 341.53&#xA;  C 640.17 344.40 655.29 342.18 668.48 334.47&#xA;  C 672.17 332.31 676.36 330.09 678.61 327.44&#xA;  A 2.47 2.46 50.3 0 0 678.87 324.61&#xA;  L 672.81 314.13&#xA;  A 2.38 2.38 0.0 0 0 669.64 313.21&#xA;  Z&#xA;  M 825.77 297.13&#xA;  L 901.36 297.13&#xA;  A 1.40 1.39 6.5 0 0 902.72 296.05&#xA;  C 905.96 281.83 906.24 262.47 897.38 250.76&#xA;  Q 890.04 241.05 878.23 237.91&#xA;  Q 868.01 235.20 859.77 236.07&#xA;  Q 828.32 239.39 812.68 264.18&#xA;  Q 807.92 271.72 805.24 280.95&#xA;  C 802.25 291.21 800.52 303.48 802.99 313.38&#xA;  C 806.82 328.71 818.36 338.88 834.08 341.73&#xA;  C 854.06 345.35 872.83 339.95 889.19 328.64&#xA;  A 1.75 1.74 71.8 0 0 889.94 327.15&#xA;  C 889.80 322.88 886.03 317.55 883.68 313.68&#xA;  A 1.32 1.32 0.0 0 0 882.24 313.08&#xA;  Q 880.79 313.44 879.78 314.01&#xA;  Q 871.20 318.84 866.26 320.49&#xA;  C 857.60 323.37 846.96 324.17 838.62 321.30&#xA;  Q 824.03 316.27 824.90 297.97&#xA;  A 0.87 0.87 0.0 0 1 825.77 297.13&#xA;  Z&#xA;  M 583.27 266.72&#xA;  Q 590.12 258.44 595.33 249.91&#xA;  A 1.74 1.72 42.9 0 0 595.25 247.99&#xA;  Q 593.99 246.25 591.03 244.48&#xA;  C 584.26 240.43 577.27 237.97 569.32 236.94&#xA;  Q 534.85 232.47 513.05 258.92&#xA;  C 501.93 272.40 498.25 291.39 499.26 308.50&#xA;  C 500.90 336.36 529.86 347.49 553.67 342.42&#xA;  Q 569.10 339.13 580.38 329.67&#xA;  Q 582.98 327.49 581.43 324.67&#xA;  Q 578.48 319.32 573.85 313.71&#xA;  A 1.74 1.73 54.2 0 0 571.59 313.34&#xA;  C 565.42 317.25 557.72 321.85 549.99 322.77&#xA;  C 542.49 323.66 535.17 322.84 529.41 317.61&#xA;  Q 524.22 312.90 522.93 306.04&#xA;  C 521.81 300.05 522.14 296.24 523.04 289.53&#xA;  Q 523.58 285.57 524.70 282.46&#xA;  C 529.10 270.25 537.43 259.62 550.41 257.45&#xA;  C 559.19 255.98 567.96 257.19 575.76 261.76&#xA;  Q 577.08 262.53 582.42 266.81&#xA;  A 0.61 0.61 0.0 0 0 583.27 266.72&#xA;  Z&#xA;  M 260.34 270.08&#xA;  A 0.70 0.69 -61.2 0 0 261.23 269.82&#xA;  Q 262.17 268.30 271.53 253.55&#xA;  C 273.22 250.89 274.58 248.15 271.63 246.12&#xA;  C 262.49 239.85 251.02 237.69 239.96 237.49&#xA;  C 201.90 236.79 173.06 265.46 175.00 303.78&#xA;  Q 175.50 313.65 181.54 323.15&#xA;  C 188.42 333.97 200.05 339.88 212.76 341.32&#xA;  Q 237.21 344.09 256.90 330.61&#xA;  Q 258.80 329.31 261.78 326.73&#xA;  A 1.07 1.06 -32.5 0 0 262.06 325.49&#xA;  Q 260.77 322.60 254.77 309.90&#xA;  Q 253.68 307.58 250.97 309.19&#xA;  Q 248.46 310.68 242.61 313.56&#xA;  Q 234.06 317.77 223.97 317.20&#xA;  Q 216.11 316.75 211.12 312.84&#xA;  Q 205.32 308.29 204.23 301.29&#xA;  Q 202.49 290.09 207.61 279.69&#xA;  Q 213.88 266.96 227.80 263.31&#xA;  Q 239.82 260.15 250.84 264.76&#xA;  C 253.92 266.05 257.56 268.79 260.34 270.08&#xA;  Z&#xA;  M 362.10 317.35&#xA;  C 373.68 303.41 378.55 285.22 374.36 267.42&#xA;  C 371.25 254.20 359.97 243.22 347.15 239.89&#xA;  C 314.53 231.42 281.99 248.41 270.31 279.89&#xA;  Q 268.91 283.67 268.04 289.49&#xA;  Q 266.80 297.80 266.80 299.28&#xA;  Q 266.85 319.63 280.76 331.83&#xA;  C 298.88 347.72 328.24 344.54 346.81 332.02&#xA;  C 352.25 328.35 358.03 322.25 362.10 317.35&#xA;  Z&#xA;  M 155.42 340.85&#xA;  A 1.77 1.77 0.0 0 0 157.15 339.45&#xA;  L 178.19 240.36&#xA;  A 1.77 1.77 0.0 0 0 176.45 238.22&#xA;  L 150.40 238.22&#xA;  A 1.77 1.77 0.0 0 0 148.67 239.62&#xA;  L 127.63 338.71&#xA;  A 1.77 1.77 0.0 0 0 129.37 340.85&#xA;  L 155.42 340.85&#xA;  Z&#xA;  M 625.46 366.80&#xA;  A 0.19 0.19 0.0 0 0 625.37 366.52&#xA;  Q 615.19 362.46 603.96 356.09&#xA;  C 601.52 354.71 599.97 354.23 597.68 355.92&#xA;  C 593.29 359.14 586.82 364.13 581.17 367.70&#xA;  Q 553.80 384.99 521.60 391.64&#xA;  C 512.96 393.43 505.03 393.65 494.04 394.63&#xA;  A 0.60 0.59 88.0 0 0 493.49 395.23&#xA;  L 493.49 418.48&#xA;  A 1.17 1.17 0.0 0 0 494.63 419.65&#xA;  C 519.71 420.28 545.19 414.53 568.73 404.98&#xA;  Q 595.27 394.21 619.73 373.50&#xA;  Q 623.40 370.40 625.46 366.80&#xA;  Z"/>
<path fill="#04bfa4" d="&#xA;  M 505.24 0.00&#xA;  Q 564.51 2.66 611.55 38.45&#xA;  Q 614.79 40.91 618.37 44.33&#xA;  A 0.86 0.86 0.0 0 1 618.40 45.54&#xA;  Q 611.16 53.22 603.49 60.99&#xA;  Q 601.27 63.24 599.25 64.54&#xA;  A 2.81 2.80 46.4 0 1 596.10 64.46&#xA;  C 592.44 61.85 588.57 57.97 584.77 55.44&#xA;  Q 557.78 37.42 528.61 31.46&#xA;  Q 498.62 25.34 466.40 31.50&#xA;  Q 437.28 37.07 410.86 54.42&#xA;  C 405.74 57.78 401.49 61.43 396.64 64.21&#xA;  A 0.97 0.95 43.2 0 1 395.74 64.23&#xA;  Q 393.93 63.31 393.20 62.56&#xA;  Q 387.38 56.58 381.36 50.90&#xA;  L 376.01 44.24&#xA;  Q 377.57 42.60 379.41 41.18&#xA;  Q 399.33 25.79 422.31 15.49&#xA;  C 444.09 5.73 468.27 0.98 492.00 0.00&#xA;  L 505.24 0.00&#xA;  Z"/>
<path fill="#cad9d1" d="&#xA;  M 376.01 44.24&#xA;  L 381.36 50.90&#xA;  Q 380.24 50.77 379.56 51.24&#xA;  A 0.98 0.94 79.3 0 0 379.19 51.81&#xA;  Q 378.29 56.15 376.22 58.75&#xA;  C 372.44 63.52 365.85 69.00 361.58 74.07&#xA;  C 357.66 78.72 352.98 83.04 348.81 88.59&#xA;  Q 331.33 111.81 320.99 135.70&#xA;  C 318.29 141.96 316.32 146.00 314.65 151.20&#xA;  Q 310.36 164.59 306.72 180.19&#xA;  C 304.72 188.75 304.46 196.13 303.68 205.74&#xA;  A 0.30 0.30 0.0 0 1 303.09 205.79&#xA;  Q 302.30 202.92 302.32 200.50&#xA;  Q 302.49 179.74 304.15 168.26&#xA;  Q 305.24 160.66 308.04 150.58&#xA;  Q 310.27 142.57 313.99 133.48&#xA;  Q 325.87 104.45 345.67 79.16&#xA;  Q 347.75 76.49 352.65 71.40&#xA;  Q 357.93 65.90 375.28 47.25&#xA;  A 1.12 1.04 -19.7 0 0 375.54 46.75&#xA;  L 376.01 44.24&#xA;  Z"/>
<path fill="#04bfa4" d="&#xA;  M 443.19 112.90&#xA;  A 1.87 1.87 0.0 0 1 440.68 112.78&#xA;  L 421.59 93.69&#xA;  A 1.26 1.26 0.0 0 1 421.48 92.04&#xA;  Q 423.17 89.79 424.76 88.53&#xA;  Q 450.75 67.93 482.41 63.82&#xA;  C 510.91 60.11 539.00 66.83 562.67 83.29&#xA;  Q 567.18 86.43 571.22 90.44&#xA;  A 1.66 1.66 0.0 0 1 571.28 92.73&#xA;  L 553.17 112.72&#xA;  A 1.90 1.89 43.0 0 1 550.45 112.81&#xA;  Q 533.64 96.50 511.52 92.73&#xA;  Q 503.39 91.34 491.32 91.95&#xA;  C 476.99 92.69 463.14 97.58 451.81 106.08&#xA;  Q 447.99 108.95 443.19 112.90&#xA;  Z"/>
<path fill="#94d4c9" d="&#xA;  M 671.09 113.45&#xA;  L 647.93 125.27&#xA;  Q 636.78 105.89 631.18 98.83&#xA;  Q 624.63 90.58 617.88 82.05&#xA;  A 1.69 1.68 45.5 0 1 617.89 79.95&#xA;  Q 619.80 77.60 620.10 77.35&#xA;  Q 627.37 71.24 634.59 64.91&#xA;  A 2.16 2.16 0.0 0 1 637.17 64.70&#xA;  Q 638.12 65.28 639.36 66.64&#xA;  Q 658.43 87.37 671.09 113.45&#xA;  Z"/>
<path fill="#09b499" d="&#xA;  M 671.09 113.45&#xA;  L 675.43 122.60&#xA;  L 651.63 134.27&#xA;  A 2.03 2.02 -47.6 0 1 650.02 134.35&#xA;  C 645.67 132.73 641.49 134.68 637.55 136.46&#xA;  C 635.00 137.61 632.83 137.44 630.65 136.14&#xA;  A 0.47 0.46 46.0 0 1 630.66 135.33&#xA;  Q 631.85 134.68 632.76 133.44&#xA;  L 647.93 125.27&#xA;  L 671.09 113.45&#xA;  Z"/>
<ellipse fill="#04bfa4" cx="0.00" cy="0.00" transform="translate(496.98,145.76) rotate(-1.9)" rx="24.80" ry="24.39"/>
<path fill="#94d4c9" d="&#xA;  M 632.76 133.44&#xA;  Q 631.85 134.68 630.66 135.33&#xA;  A 0.47 0.46 46.0 0 0 630.65 136.14&#xA;  C 632.83 137.44 635.00 137.61 637.55 136.46&#xA;  C 641.49 134.68 645.67 132.73 650.02 134.35&#xA;  A 2.03 2.02 -47.6 0 0 651.63 134.27&#xA;  L 675.43 122.60&#xA;  Q 678.34 130.91 681.73 140.03&#xA;  C 685.57 150.38 687.27 161.13 689.30 172.33&#xA;  C 690.60 179.54 690.85 186.76 691.81 193.42&#xA;  A 1.30 1.30 0.0 0 1 690.52 194.90&#xA;  L 666.65 194.90&#xA;  A 1.32 1.32 0.0 0 1 665.33 193.65&#xA;  C 664.23 173.64 658.60 154.40 651.90 135.79&#xA;  A 1.00 1.00 0.0 0 0 650.76 135.14&#xA;  C 649.23 135.44 647.15 136.11 645.81 136.75&#xA;  Q 611.00 153.35 576.48 169.00&#xA;  Q 571.93 171.06 565.97 173.98&#xA;  C 556.15 178.79 547.25 182.45 537.69 186.91&#xA;  Q 532.41 189.37 522.77 192.84&#xA;  A 0.80 0.79 14.7 0 1 521.98 191.49&#xA;  C 522.69 190.89 524.12 190.62 525.20 190.04&#xA;  Q 556.06 173.54 566.54 167.80&#xA;  C 568.04 166.98 569.92 166.28 571.29 165.50&#xA;  Q 588.25 155.83 606.83 146.87&#xA;  C 614.74 143.06 624.04 137.77 632.76 133.44&#xA;  Z"/>
<path fill="#94d4c9" d="&#xA;  M 692.05 201.10&#xA;  Q 693.18 206.35 692.25 211.58&#xA;  A 1.74 1.74 0.0 0 1 691.15 212.91&#xA;  Q 689.25 213.64 686.77 213.83&#xA;  Q 676.51 214.63 667.07 214.40&#xA;  A 1.25 1.25 0.0 0 1 665.85 213.15&#xA;  L 665.85 201.08&#xA;  A 1.02 1.02 0.0 0 1 666.87 200.06&#xA;  L 690.77 200.06&#xA;  A 1.31 1.31 0.0 0 1 692.05 201.10&#xA;  Z"/>
<path fill="#09b499" d="&#xA;  M 380.75 312.28&#xA;  Q 382.42 312.46 387.13 313.90&#xA;  Q 407.66 320.19 428.98 320.35&#xA;  Q 443.08 320.45 455.37 315.67&#xA;  Q 457.84 314.72 461.93 311.07&#xA;  Q 465.36 308.02 466.30 304.49&#xA;  C 469.74 291.65 453.87 286.97 444.50 284.76&#xA;  Q 425.86 280.36 418.23 278.29&#xA;  Q 406.52 275.12 398.21 267.78&#xA;  C 393.38 263.52 390.74 256.38 390.36 249.75&#xA;  C 388.79 222.05 412.19 204.96 437.23 201.96&#xA;  Q 469.85 198.05 501.18 206.91&#xA;  A 1.59 1.58 -76.2 0 1 502.30 208.77&#xA;  L 498.27 227.77&#xA;  A 2.04 2.03 -75.9 0 1 495.72 229.30&#xA;  Q 470.61 222.13 445.19 223.94&#xA;  C 435.19 224.65 424.40 226.55 417.92 234.84&#xA;  C 412.15 242.22 414.99 251.04 423.30 254.50&#xA;  C 431.65 257.97 439.64 259.30 450.19 261.36&#xA;  C 467.25 264.71 491.04 271.79 491.84 293.39&#xA;  Q 492.17 302.22 490.61 307.63&#xA;  C 484.66 328.17 461.87 339.83 442.15 342.16&#xA;  Q 434.56 343.05 422.81 342.96&#xA;  Q 400.45 342.79 377.78 335.22&#xA;  Q 373.79 333.89 374.34 330.25&#xA;  Q 374.65 328.22 379.71 312.95&#xA;  A 0.99 0.99 0.0 0 1 380.75 312.28&#xA;  Z"/>
<path fill="#09b499" d="&#xA;  M 151.99 223.56&#xA;  L 156.54 202.13&#xA;  A 1.27 1.27 0.0 0 1 157.78 201.12&#xA;  L 185.00 201.12&#xA;  A 1.27 1.27 0.0 0 1 186.24 202.65&#xA;  L 181.69 224.08&#xA;  A 1.27 1.27 0.0 0 1 180.45 225.09&#xA;  L 153.23 225.09&#xA;  A 1.27 1.27 0.0 0 1 151.99 223.56&#xA;  Z"/>
<path fill="#09b499" d="&#xA;  M 0.80 340.02&#xA;  Q 0.89 337.94 1.50 334.99&#xA;  Q 11.74 285.29 19.86 248.89&#xA;  C 22.46 237.25 25.65 221.20 29.00 206.28&#xA;  A 0.74 0.74 0.0 0 1 29.67 205.70&#xA;  Q 33.88 205.41 36.50 205.44&#xA;  Q 92.40 206.08 98.00 206.13&#xA;  Q 112.07 206.25 122.71 213.75&#xA;  C 134.66 222.18 137.40 239.28 134.27 252.72&#xA;  C 131.72 263.71 125.40 276.01 116.36 283.36&#xA;  Q 102.25 294.84 83.75 296.06&#xA;  C 69.61 297.00 48.95 296.19 41.27 295.99&#xA;  A 1.26 1.26 0.0 0 0 40.00 296.98&#xA;  L 30.83 339.38&#xA;  A 1.87 1.86 -83.8 0 1 29.01 340.85&#xA;  L 1.60 340.85&#xA;  A 0.80 0.80 0.0 0 1 0.80 340.02&#xA;  Z&#xA;  M 47.92 270.52&#xA;  Q 63.21 271.13 79.74 270.70&#xA;  C 90.78 270.41 101.55 265.42 104.28 253.81&#xA;  Q 107.68 239.41 95.42 233.84&#xA;  A 6.14 5.79 -26.1 0 0 94.06 233.42&#xA;  Q 85.56 231.90 82.25 231.85&#xA;  Q 76.05 231.77 55.76 231.93&#xA;  A 1.41 1.40 5.6 0 0 54.39 233.05&#xA;  L 46.75 269.02&#xA;  A 1.25 1.25 0.0 0 0 47.92 270.52&#xA;  Z"/>
<path fill="#ffffff" d="&#xA;  M 47.92 270.52&#xA;  A 1.25 1.25 0.0 0 1 46.75 269.02&#xA;  L 54.39 233.05&#xA;  A 1.41 1.40 5.6 0 1 55.76 231.93&#xA;  Q 76.05 231.77 82.25 231.85&#xA;  Q 85.56 231.90 94.06 233.42&#xA;  A 6.14 5.79 -26.1 0 1 95.42 233.84&#xA;  Q 107.68 239.41 104.28 253.81&#xA;  C 101.55 265.42 90.78 270.41 79.74 270.70&#xA;  Q 63.21 271.13 47.92 270.52&#xA;  Z"/>
<path fill="#09b499" d="&#xA;  M 995.53 258.11&#xA;  A 1.75 1.74 -75.4 0 1 993.40 259.37&#xA;  Q 983.12 256.68 972.00 255.26&#xA;  C 963.36 254.15 942.12 252.91 938.04 263.87&#xA;  C 935.55 270.57 942.26 273.64 947.52 275.22&#xA;  C 964.17 280.24 991.45 282.07 992.36 305.82&#xA;  C 992.93 320.37 981.70 333.82 968.61 338.56&#xA;  Q 958.61 342.19 946.92 342.42&#xA;  Q 926.18 342.83 905.76 335.70&#xA;  A 2.01 1.99 10.2 0 1 904.42 333.79&#xA;  Q 904.58 324.79 907.36 316.87&#xA;  A 1.18 1.17 11.3 0 1 908.55 316.08&#xA;  C 910.30 316.18 913.01 316.59 915.01 317.27&#xA;  Q 931.79 322.96 949.22 322.90&#xA;  Q 958.00 322.86 965.21 319.27&#xA;  C 971.81 315.98 972.70 307.46 966.41 303.26&#xA;  Q 963.48 301.29 958.53 300.01&#xA;  Q 944.93 296.50 939.98 295.27&#xA;  Q 931.71 293.23 924.61 289.14&#xA;  C 908.53 279.88 912.52 255.55 925.64 245.65&#xA;  C 938.52 235.93 952.75 234.20 969.23 234.93&#xA;  Q 983.49 235.57 998.22 240.56&#xA;  A 1.96 1.95 -73.5 0 1 999.48 242.90&#xA;  L 995.53 258.11&#xA;  Z"/>
<path fill="#09b499" d="&#xA;  M 734.54 246.65&#xA;  L 735.36 245.71&#xA;  A 1.37 1.26 -84.3 0 1 735.63 245.47&#xA;  C 748.47 236.65 764.47 232.88 779.59 237.40&#xA;  Q 797.43 242.74 799.05 261.42&#xA;  C 799.40 265.48 798.52 269.62 797.88 273.79&#xA;  Q 795.71 288.19 792.61 300.33&#xA;  C 790.95 306.82 789.91 313.40 788.11 320.65&#xA;  C 786.61 326.66 785.54 332.45 783.88 340.10&#xA;  A 1.73 1.73 0.0 0 1 782.19 341.46&#xA;  L 762.60 341.46&#xA;  A 1.27 1.26 -84.7 0 1 761.36 339.96&#xA;  Q 765.82 315.67 771.97 288.24&#xA;  C 773.75 280.30 777.81 263.08 769.00 258.11&#xA;  Q 761.30 253.77 752.05 256.07&#xA;  C 733.76 260.61 728.55 273.43 725.29 290.27&#xA;  Q 721.05 312.13 716.33 333.82&#xA;  Q 715.60 337.18 714.50 340.28&#xA;  A 1.02 1.02 0.0 0 1 713.54 340.96&#xA;  L 693.08 340.96&#xA;  A 0.56 0.56 0.0 0 1 692.52 340.37&#xA;  Q 692.69 337.36 692.93 336.18&#xA;  Q 696.50 318.35 712.92 238.35&#xA;  A 0.95 0.95 0.0 0 1 713.85 237.60&#xA;  L 732.34 237.60&#xA;  A 1.32 1.31 2.6 0 1 733.65 239.03&#xA;  L 733.03 246.01&#xA;  A 0.86 0.86 0.0 0 0 734.54 246.65&#xA;  Z"/>
<path fill="#09b499" d="&#xA;  M 669.64 313.21&#xA;  A 2.38 2.38 0.0 0 1 672.81 314.13&#xA;  L 678.87 324.61&#xA;  A 2.47 2.46 50.3 0 1 678.61 327.44&#xA;  C 676.36 330.09 672.17 332.31 668.48 334.47&#xA;  C 655.29 342.18 640.17 344.40 624.98 341.53&#xA;  C 604.64 337.70 592.42 322.90 591.98 302.22&#xA;  Q 591.68 287.99 597.21 274.40&#xA;  Q 606.97 250.41 630.50 240.47&#xA;  C 644.04 234.76 659.89 234.04 673.25 239.95&#xA;  C 686.08 245.63 692.61 259.66 693.08 273.23&#xA;  Q 693.33 280.60 692.57 288.31&#xA;  Q 692.12 292.94 691.07 296.27&#xA;  A 1.40 1.39 8.8 0 1 689.74 297.24&#xA;  L 615.45 297.24&#xA;  A 1.32 1.31 -89.1 0 0 614.14 298.52&#xA;  C 613.76 312.58 622.34 321.79 636.29 322.80&#xA;  C 645.02 323.43 653.63 321.67 661.53 317.49&#xA;  Q 665.91 315.18 669.64 313.21&#xA;  Z&#xA;  M 671.32 278.22&#xA;  C 671.32 269.11 666.65 258.71 657.23 256.78&#xA;  Q 635.54 252.32 622.22 270.17&#xA;  Q 619.95 273.21 618.02 277.62&#xA;  A 0.92 0.91 11.9 0 0 618.86 278.90&#xA;  L 670.67 278.86&#xA;  A 0.65 0.65 0.0 0 0 671.32 278.22&#xA;  Z"/>
<path fill="#09b499" d="&#xA;  M 824.90 297.97&#xA;  Q 824.03 316.27 838.62 321.30&#xA;  C 846.96 324.17 857.60 323.37 866.26 320.49&#xA;  Q 871.20 318.84 879.78 314.01&#xA;  Q 880.79 313.44 882.24 313.08&#xA;  A 1.32 1.32 0.0 0 1 883.68 313.68&#xA;  C 886.03 317.55 889.80 322.88 889.94 327.15&#xA;  A 1.75 1.74 71.8 0 1 889.19 328.64&#xA;  C 872.83 339.95 854.06 345.35 834.08 341.73&#xA;  C 818.36 338.88 806.82 328.71 802.99 313.38&#xA;  C 800.52 303.48 802.25 291.21 805.24 280.95&#xA;  Q 807.92 271.72 812.68 264.18&#xA;  Q 828.32 239.39 859.77 236.07&#xA;  Q 868.01 235.20 878.23 237.91&#xA;  Q 890.04 241.05 897.38 250.76&#xA;  C 906.24 262.47 905.96 281.83 902.72 296.05&#xA;  A 1.40 1.39 6.5 0 1 901.36 297.13&#xA;  L 825.77 297.13&#xA;  A 0.87 0.87 0.0 0 0 824.90 297.97&#xA;  Z&#xA;  M 882.71 278.47&#xA;  C 882.72 269.27 878.01 258.76 868.50 256.80&#xA;  Q 846.59 252.28 833.12 270.30&#xA;  Q 830.83 273.37 828.87 277.82&#xA;  A 0.93 0.92 12.0 0 0 829.72 279.12&#xA;  L 882.05 279.12&#xA;  A 0.66 0.66 0.0 0 0 882.71 278.47&#xA;  Z"/>
<path fill="#09b499" d="&#xA;  M 582.42 266.81&#xA;  Q 577.08 262.53 575.76 261.76&#xA;  C 567.96 257.19 559.19 255.98 550.41 257.45&#xA;  C 537.43 259.62 529.10 270.25 524.70 282.46&#xA;  Q 523.58 285.57 523.04 289.53&#xA;  C 522.14 296.24 521.81 300.05 522.93 306.04&#xA;  Q 524.22 312.90 529.41 317.61&#xA;  C 535.17 322.84 542.49 323.66 549.99 322.77&#xA;  C 557.72 321.85 565.42 317.25 571.59 313.34&#xA;  A 1.74 1.73 54.2 0 1 573.85 313.71&#xA;  Q 578.48 319.32 581.43 324.67&#xA;  Q 582.98 327.49 580.38 329.67&#xA;  Q 569.10 339.13 553.67 342.42&#xA;  C 529.86 347.49 500.90 336.36 499.26 308.50&#xA;  C 498.25 291.39 501.93 272.40 513.05 258.92&#xA;  Q 534.85 232.47 569.32 236.94&#xA;  C 577.27 237.97 584.26 240.43 591.03 244.48&#xA;  Q 593.99 246.25 595.25 247.99&#xA;  A 1.74 1.72 42.9 0 1 595.33 249.91&#xA;  Q 590.12 258.44 583.27 266.72&#xA;  A 0.61 0.61 0.0 0 1 582.42 266.81&#xA;  Z"/>
<path fill="#09b499" d="&#xA;  M 260.34 270.08&#xA;  C 257.56 268.79 253.92 266.05 250.84 264.76&#xA;  Q 239.82 260.15 227.80 263.31&#xA;  Q 213.88 266.96 207.61 279.69&#xA;  Q 202.49 290.09 204.23 301.29&#xA;  Q 205.32 308.29 211.12 312.84&#xA;  Q 216.11 316.75 223.97 317.20&#xA;  Q 234.06 317.77 242.61 313.56&#xA;  Q 248.46 310.68 250.97 309.19&#xA;  Q 253.68 307.58 254.77 309.90&#xA;  Q 260.77 322.60 262.06 325.49&#xA;  A 1.07 1.06 -32.5 0 1 261.78 326.73&#xA;  Q 258.80 329.31 256.90 330.61&#xA;  Q 237.21 344.09 212.76 341.32&#xA;  C 200.05 339.88 188.42 333.97 181.54 323.15&#xA;  Q 175.50 313.65 175.00 303.78&#xA;  C 173.06 265.46 201.90 236.79 239.96 237.49&#xA;  C 251.02 237.69 262.49 239.85 271.63 246.12&#xA;  C 274.58 248.15 273.22 250.89 271.53 253.55&#xA;  Q 262.17 268.30 261.23 269.82&#xA;  A 0.70 0.69 -61.2 0 1 260.34 270.08&#xA;  Z"/>
<path fill="#09b499" d="&#xA;  M 362.10 317.35&#xA;  C 358.03 322.25 352.25 328.35 346.81 332.02&#xA;  C 328.24 344.54 298.88 347.72 280.76 331.83&#xA;  Q 266.85 319.63 266.80 299.28&#xA;  Q 266.80 297.80 268.04 289.49&#xA;  Q 268.91 283.67 270.31 279.89&#xA;  C 281.99 248.41 314.53 231.42 347.15 239.89&#xA;  C 359.97 243.22 371.25 254.20 374.36 267.42&#xA;  C 378.55 285.22 373.68 303.41 362.10 317.35&#xA;  Z&#xA;  M 302.38 274.77&#xA;  Q 296.74 281.85 295.25 291.45&#xA;  C 293.76 301.06 297.07 311.34 306.75 314.84&#xA;  C 318.78 319.20 331.32 314.59 339.19 304.71&#xA;  Q 344.83 297.64 346.32 288.04&#xA;  C 347.81 278.43 344.50 268.15 334.82 264.65&#xA;  C 322.79 260.29 310.26 264.90 302.38 274.77&#xA;  Z"/>
<path fill="#09b499" d="&#xA;  M 155.42 340.85&#xA;  L 129.37 340.85&#xA;  A 1.77 1.77 0.0 0 1 127.63 338.71&#xA;  L 148.67 239.62&#xA;  A 1.77 1.77 0.0 0 1 150.40 238.22&#xA;  L 176.45 238.22&#xA;  A 1.77 1.77 0.0 0 1 178.19 240.36&#xA;  L 157.15 339.45&#xA;  A 1.77 1.77 0.0 0 1 155.42 340.85&#xA;  Z"/>
<path fill="#ffffff" d="&#xA;  M 671.32 278.22&#xA;  A 0.65 0.65 0.0 0 1 670.67 278.86&#xA;  L 618.86 278.90&#xA;  A 0.92 0.91 11.9 0 1 618.02 277.62&#xA;  Q 619.95 273.21 622.22 270.17&#xA;  Q 635.54 252.32 657.23 256.78&#xA;  C 666.65 258.71 671.32 269.11 671.32 278.22&#xA;  Z"/>
<path fill="#ffffff" d="&#xA;  M 882.71 278.47&#xA;  A 0.66 0.66 0.0 0 1 882.05 279.12&#xA;  L 829.72 279.12&#xA;  A 0.93 0.92 12.0 0 1 828.87 277.82&#xA;  Q 830.83 273.37 833.12 270.30&#xA;  Q 846.59 252.28 868.50 256.80&#xA;  C 878.01 258.76 882.72 269.27 882.71 278.47&#xA;  Z"/>
<path fill="#ffffff" d="&#xA;  M 339.19 304.71&#xA;  C 331.32 314.59 318.78 319.20 306.75 314.84&#xA;  C 297.07 311.34 293.76 301.06 295.25 291.45&#xA;  Q 296.74 281.85 302.38 274.77&#xA;  C 310.26 264.90 322.79 260.29 334.82 264.65&#xA;  C 344.50 268.15 347.81 278.43 346.32 288.04&#xA;  Q 344.83 297.64 339.19 304.71&#xA;  Z"/>
<path fill="#09b499" d="&#xA;  M 625.46 366.80&#xA;  Q 623.40 370.40 619.73 373.50&#xA;  Q 595.27 394.21 568.73 404.98&#xA;  C 545.19 414.53 519.71 420.28 494.63 419.65&#xA;  A 1.17 1.17 0.0 0 1 493.49 418.48&#xA;  L 493.49 395.23&#xA;  A 0.60 0.59 88.0 0 1 494.04 394.63&#xA;  C 505.03 393.65 512.96 393.43 521.60 391.64&#xA;  Q 553.80 384.99 581.17 367.70&#xA;  C 586.82 364.13 593.29 359.14 597.68 355.92&#xA;  C 599.97 354.23 601.52 354.71 603.96 356.09&#xA;  Q 615.19 362.46 625.37 366.52&#xA;  A 0.19 0.19 0.0 0 1 625.46 366.80&#xA;  Z"/>
</svg>